# xmcd
#
# Track frame offsets:
#	150
#	6421
#	37659
#	57097
#	86641
#	113864
#	144485
#	169595
#	201256
#	235129
#	268510
#	286908
#	313762
#
# Disc length: 4434 seconds
#
# Revision: 1
# Processed by: cddbd v1.5.2PL0 Copyright (c) Steve Scherf et al.
# Submitted via: EZCDAudioConverter 8.0.2.1
#
DISCID=ad11500d
DTITLE=Lệ Thu, Khánh Ly, Sĩ Phú, Duy Quang - st. Nguyễn Tất Nhiên. Tứ Quý
DYEAR=1998
DGENRE=World Pop
TTITLE0=Tac Gia Doc - Vào tình khúc
TTITLE1=Thư Lê - Thà như giọt mưa
TTITLE2=Duy Quang - Như màu nắng sân trường
TTITLE3=Khánh Ly - Sài Gòn trên đường Nguyễn Du
TTITLE4=Sĩ Phú - Em hiền như Ma Soeur
TTITLE5=Khánh Ly - Khi nào em vượt biên
TTITLE6=Thư Lê - Xin cho tình ta theo
TTITLE7=Sĩ Phú - Hai năm tình lận đận
TTITLE8=Khánh Ly - Chiều trên đường Hồng Thập Tự
TTITLE9=Duy Quang - Nga
TTITLE10=Sĩ Phú - Sông chiều áo trắng
TTITLE11=Thư Lê - Paris thu khúc
TTITLE12=Duy Quang - Trên nát tan tôi
EXTD=
EXTT0=
EXTT1=
EXTT2=
EXTT3=
EXTT4=
EXTT5=
EXTT6=
EXTT7=
EXTT8=
EXTT9=
EXTT10=
EXTT11=
EXTT12=
PLAYORDER=
